<svg xmlns="http://www.w3.org/2000/svg" height="20px" viewBox="0 -960 960 960" width="20px" fill="#e3e3e3"><path d="M220-412q-28-28-28-68t28-68q28-28 68-28t68 28q28 28 28 68t-28 68q-28 28-68 28t-68-28Zm68 172q-100 0-170-70T48-480q0-100 70-170t170-70q65 0 120 32.5t88 87.5h329q8 0 14.5 3t11.5 8l83 83q5 5 7.5 12t2.5 14q0 7-3 13.5t-8 11.5L802-332q-5 5-11 7t-12 3q-6 1-12-1t-11-6l-60-43-50 42q-5 4-10.5 6t-11.5 2q-6 0-12-1.5t-11-5.5l-73-55h-20q-24 68-85.5 106T288-240Zm0-72q63 0 111-40.5T454-456h98l70 52 71-59 81 58 82-76-46-47H449q-19-53-62.5-86.5T288-648q-70 0-119 49t-49 119q0 70 49 119t119 49Z"/></svg>