<?xml version="1.0" encoding="UTF-8"?>
<svg version="1.1" xmlns="http://www.w3.org/2000/svg" width="2048" height="745">
<path d="M0 0 C180.18 0 360.36 0 546 0 C549.46785232 28.89876937 549.46785232 28.89876937 550.60546875 39.8828125 C550.79886589 41.7359053 550.79886589 41.7359053 550.99617004 43.62643433 C551.26174657 46.17809481 551.52629842 48.72986216 551.78979492 51.28173828 C552.19364253 55.18435894 552.60356467 59.08631397 553.01367188 62.98828125 C553.2738024 65.49475382 553.53358155 68.00126289 553.79296875 70.5078125 C553.91480026 71.66193634 554.03663177 72.81606018 554.16215515 74.00515747 C554.27259659 75.08514008 554.38303802 76.16512268 554.49682617 77.27783203 C554.64313728 78.68695358 554.64313728 78.68695358 554.79240417 80.12454224 C555.03059977 83.42384449 555.03309339 86.69326264 555 90 C556.80071205 89.99666908 556.80071205 89.99666908 558.63780212 89.99327087 C569.92477295 89.97304118 581.21174013 89.9580287 592.49872494 89.94818783 C598.30213613 89.94295856 604.10553275 89.93586013 609.90893555 89.92456055 C615.50450853 89.91373322 621.10006745 89.9077235 626.6956501 89.90512276 C628.83558944 89.90326823 630.97552796 89.89964709 633.11546135 89.89426994 C636.10164966 89.88706156 639.08777907 89.88600897 642.07397461 89.88647461 C642.96805023 89.88287933 643.86212585 89.87928406 644.78329468 89.87557983 C650.88594784 89.88594784 650.88594784 89.88594784 652 91 C652.26772028 92.93750509 652.47194525 94.88381042 652.65132141 96.83148193 C652.76838283 98.08555973 652.88544424 99.33963753 653.00605297 100.63171768 C653.13100644 102.02496278 653.25568929 103.41823217 653.38012695 104.81152344 C653.51255887 106.26161843 653.64513407 107.71170033 653.77784443 109.16176987 C655.21297783 124.96606438 656.47829689 140.78428332 657.72733092 156.60417271 C658.05415096 160.73824699 658.38338082 164.87212956 658.7122345 169.00604248 C659.26082654 175.90673578 659.8076361 182.80756842 660.35327148 189.70849609 C660.98321206 197.67542592 661.61595218 205.64212979 662.2501356 213.60872293 C662.86511412 221.33471171 663.47830913 229.06084099 664.09063148 236.78704071 C664.34964338 240.0549331 664.60925257 243.32277722 664.86934471 246.5905838 C665.17370523 250.41572159 665.47649644 254.24098044 665.77806282 258.06633949 C665.88878299 259.46765478 666.00003929 260.86892783 666.11186981 262.27015495 C666.2642478 264.18057734 666.41449003 266.09116973 666.56462097 268.00177002 C666.69151448 269.60418486 666.69151448 269.60418486 666.82097149 271.23897171 C666.96684754 273.48871333 667 275.74553394 667 278 C698.35 278 729.7 278 762 278 C760.36119365 249.98459047 760.36119365 249.98459047 758.70898438 221.9699707 C758.39160156 216.47888184 758.39160156 216.47888184 758.24328613 213.88615417 C758.14134205 212.12361373 758.03707909 210.36120625 757.93078613 208.59892273 C756.4290808 183.62553512 757.12341156 158.68192172 757.57285571 133.68415332 C757.62149246 130.97387589 757.66962952 128.26359002 757.7176075 125.55330086 C757.88532843 116.08212786 758.05514612 106.61099496 758.22680664 97.13989258 C758.38644295 88.32877628 758.54113932 79.5175821 758.69367355 70.70634025 C758.82543717 63.10840489 758.96074985 55.51053804 759.09881264 47.91271454 C759.18096492 43.38797032 759.26164833 38.86321151 759.33868217 34.338377 C759.41094246 30.10033952 759.48760373 25.86240453 759.56768799 21.6245079 C759.59630526 20.07008151 759.62333468 18.51562496 759.64866829 16.96114159 C759.6834499 14.84190456 759.72392815 12.72285048 759.76585388 10.60374451 C759.79765574 8.82503794 759.79765574 8.82503794 759.83010006 7.01039791 C760 4 760 4 761 0 C1012.46 0 1263.92 0 1523 0 C1523.71515589 4.29093534 1524.18998708 8.15074083 1524.38891602 12.45410156 C1524.44890274 13.71691956 1524.50888947 14.97973755 1524.57069397 16.28082275 C1524.63196183 17.65074804 1524.69302719 19.02068239 1524.75390625 20.390625 C1524.81954006 21.81867365 1524.88537528 23.24671306 1524.95140076 24.67474365 C1525.08904868 27.6704293 1525.22403436 30.66622025 1525.35717773 33.66210938 C1525.52563059 37.44716647 1525.70091835 41.23186868 1525.87835789 45.01651382 C1526.01603776 47.97148518 1526.14974446 50.92662719 1526.2823925 53.88182831 C1526.34534894 55.27371533 1526.40948822 56.6655495 1526.47497749 58.05731964 C1526.97392299 68.72626254 1527 79.30048558 1527 90 C1591.35 90 1655.7 90 1722 90 C1722.33 86.37 1722.66 82.74 1723 79 C1723.42335431 76.22198772 1723.87042222 73.47457596 1724.3828125 70.71459961 C1724.51790222 69.96518097 1724.65299194 69.21576233 1724.79217529 68.44363403 C1725.23172292 66.012318 1725.67814803 63.58232696 1726.125 61.15234375 C1726.43539306 59.44655843 1726.74544582 57.74071115 1727.05517578 56.0348053 C1727.70106337 52.48333448 1728.35023431 48.93248535 1729.00195312 45.38208008 C1729.8379857 40.8267061 1730.66690049 36.27007184 1731.49356079 31.71298885 C1732.13115248 28.20136955 1732.77182581 24.69031826 1733.41351318 21.17944527 C1733.72052968 19.49822311 1734.02672624 17.81685101 1734.33209229 16.13532829 C1734.75741154 13.79659835 1735.18672068 11.45863678 1735.6171875 9.12084961 C1735.74293152 8.42531479 1735.86867554 7.72977997 1735.99822998 7.01316833 C1736.88560273 2.22879454 1736.88560273 2.22879454 1738 0 C1810.6 0 1883.2 0 1958 0 C1965.21483022 87.92234097 1965.21483022 87.92234097 1968.3359375 125.96875 C1969.0491453 134.6627611 1969.76235988 143.35677165 1970.47558594 152.05078125 C1970.56486044 153.13901389 1970.65413494 154.22724652 1970.74611473 155.34845591 C1971.97789278 170.36340087 1973.20992291 185.37832514 1974.44217059 200.39323157 C1974.95546906 206.64782778 1975.46873435 212.90242671 1975.9819987 219.15702572 C1976.40904438 224.36094565 1976.83610991 229.56486395 1977.26321745 234.7687788 C1979.05876918 256.64624564 1980.85298886 278.52381967 1982.64197001 300.40182489 C1983.32250059 308.72405385 1984.00327385 317.04626297 1984.68407172 325.36847007 C1984.85349947 327.43968856 1985.02291072 329.5109084 1985.19230539 331.5821296 C1987.31261329 357.50711048 1989.44660884 383.43089077 1991.60542786 409.35269475 C1992.94573366 425.44637839 1994.27930775 441.54060974 1995.60788238 457.63526607 C1996.45847186 467.93481778 1997.31597017 478.23374519 1998.18298945 488.53192705 C1998.76731681 495.47954637 1999.34321289 502.42783329 1999.91271928 509.37668306 C2000.23777646 513.33955474 2000.56633177 517.30204123 2000.90550375 521.26373196 C2002.16357702 535.98637828 2003.2173788 550.66449257 2003.27703857 565.45162964 C2003.28749035 567.13605923 2003.28749035 567.13605923 2003.29815328 568.8545177 C2003.23317185 578.91278045 2001.24185172 587.89868925 1998.3046875 597.4609375 C1997.79356617 599.2285053 1997.28588197 600.99706989 1996.78128052 602.76651001 C1995.45102979 607.39868844 1994.07793612 612.0169491 1992.69329834 616.63311768 C1991.37805539 621.04011843 1990.10060256 625.4577115 1988.8203125 629.875 C1985.22360733 642.25292926 1981.6110197 654.62623915 1978 667 C1970.74 692.74 1963.48 718.48 1956 745 C1883.4 745 1810.8 745 1736 745 C1725 567.16666667 1725 567.16666667 1725 556 C1666.92 556.33 1608.84 556.66 1549 557 C1549 563.27 1549 569.54 1549 576 C1547.90007887 585.61168802 1547.90007887 585.61168802 1547.3611145 588.86523438 C1547.2425069 589.59242676 1547.12389931 590.31961914 1547.00169754 591.06884766 C1546.87875698 591.82085449 1546.75581642 592.57286133 1546.62915039 593.34765625 C1546.37337832 594.98084467 1546.11888679 596.61423405 1545.86555481 598.24780273 C1545.1843527 602.61664833 1544.48543623 606.98248098 1543.78277516 611.34791946 C1543.04694004 615.93858108 1542.32750048 620.53181368 1541.60606384 625.12475586 C1540.39579754 632.81518065 1539.17500024 640.50386872 1537.9465332 648.19140625 C1536.21304955 659.03941278 1534.49950849 669.89050279 1532.78952801 680.74223518 C1531.45868898 689.18294822 1530.12217746 697.62276441 1528.78515625 706.0625 C1528.6420663 706.96630024 1528.49897635 707.87010048 1528.35155034 708.8012886 C1527.53087825 713.98326407 1526.70741985 719.16478171 1525.87954521 724.34561157 C1525.62914303 725.91485887 1525.37959919 727.4842434 1525.13096619 729.05377197 C1524.79215918 731.19127051 1524.45018005 733.32823708 1524.10731506 735.46508789 C1523.82109834 737.26013512 1523.82109834 737.26013512 1523.52909946 739.09144592 C1523 742 1523 742 1522 745 C1449.73 745 1377.46 745 1303 745 C1301.85121817 730.06583622 1301.85121817 730.06583622 1301.70288086 723.08862305 C1301.68293595 722.28416905 1301.66299105 721.47971506 1301.64244175 720.65088367 C1301.58006729 718.10455975 1301.5223216 715.55815736 1301.46484375 713.01171875 C1301.42645771 711.4165371 1301.38776166 709.82136288 1301.34875488 708.22619629 C1301.20793302 702.38005301 1301.07305998 696.53376766 1300.9375 690.6875 C1300.628125 677.590625 1300.31875 664.49375 1300 651 C1267.99 651 1235.98 651 1203 651 C1202.34 663.54 1201.68 676.08 1201 689 C1200.09736008 704.40102377 1200.09736008 704.40102377 1199.62231445 711.93505859 C1199.4304933 714.98645928 1199.24351403 718.03813642 1199.05664062 721.08984375 C1198.93257255 723.07814255 1198.80823537 725.06642458 1198.68359375 727.0546875 C1198.62940781 727.94413055 1198.57522186 728.83357361 1198.51939392 729.74996948 C1198.46586258 730.58770905 1198.41233124 731.42544861 1198.35717773 732.28857422 C1198.31213608 733.00890839 1198.26709442 733.72924255 1198.22068787 734.47140503 C1197.91350285 737.99106611 1197.43821977 741.49424185 1197 745 C1053.12 745 909.24 745 761 745 C758.69616519 717.3539823 758.69616519 717.3539823 757.9296875 704.8671875 C757.84302859 703.48095697 757.75620156 702.09473693 757.66921997 700.70852661 C757.4912808 697.86421081 757.31501317 695.01979867 757.14013672 692.17529297 C756.91681062 688.54432936 756.68946739 684.91362975 756.46098137 681.28298759 C756.28285469 678.44687493 756.10656338 675.61065053 755.93085098 672.77438736 C755.80766812 670.79019833 755.68313244 668.80609344 755.55856323 666.82199097 C755.48493561 665.61858063 755.41130798 664.41517029 755.33544922 663.17529297 C755.27042206 662.12405243 755.2053949 661.07281189 755.13839722 659.98971558 C754.99946621 656.98846887 754.97590688 654.00399479 755 651 C753.14291161 651.00333092 753.14291161 651.00333092 751.24830627 651.00672913 C739.60814778 651.02695854 727.96799283 651.04197117 716.32782078 651.05181217 C710.34280734 651.05704151 704.35780804 651.06414008 698.37280273 651.07543945 C692.60216571 651.08626653 686.83154232 651.09227645 681.06089592 651.09487724 C678.85397057 651.09673182 676.647046 651.10035304 674.44012642 651.10573006 C671.36053959 651.1129381 668.28100986 651.11399104 665.20141602 651.11352539 C664.27928818 651.11712067 663.35716034 651.12071594 662.40708923 651.12442017 C656.11405216 651.11405216 656.11405216 651.11405216 655 650 C654.69747907 647.85649814 654.46058479 645.70374965 654.24707031 643.54956055 C654.17686928 642.85069796 654.10666824 642.15183537 654.0343399 641.43179512 C653.79401964 639.02139568 653.56088626 636.61035927 653.328125 634.19921875 C653.15505335 632.43608275 652.98189345 630.67295541 652.80865479 628.90983582 C650.41671317 604.40730374 648.19623779 579.88780436 645.97806549 555.36902046 C645.84247707 553.87028088 645.70688492 552.37154164 645.57128906 550.87280273 C645.47031803 549.75675276 645.47031803 549.75675276 645.36730719 548.61815631 C644.81464808 542.51479865 644.25611438 536.41198778 643.6965158 530.30926305 C643.14877738 524.33245486 642.60556154 518.35524611 642.06571412 512.37772006 C641.74664497 508.84586217 641.42578203 505.31419186 641.10009003 501.782938 C640.73956971 497.87255434 640.38845412 493.96135578 640.03808594 490.05004883 C639.93216125 488.91598099 639.82623657 487.78191315 639.71710205 486.61347961 C639.04430129 478.98603167 639 471.72367186 639 464 C611.61 464 584.22 464 556 464 C556 472.91 556 481.82 556 491 C555.89766991 496.11635541 555.7809999 501.21971017 555.59765625 506.33203125 C555.55563583 507.58916428 555.51361542 508.8462973 555.47032166 510.14152527 C555.38258643 512.73269146 555.29265382 515.32378426 555.20043945 517.91479492 C555.1071511 520.55080999 555.01624896 523.18676002 554.92993164 525.82299805 C554.80267355 529.70117052 554.66988242 533.57911175 554.53515625 537.45703125 C554.49656998 538.63191605 554.4579837 539.80680084 554.41822815 541.01728821 C554.35827919 542.65772346 554.35827919 542.65772346 554.29711914 544.33129883 C554.26380997 545.28466629 554.23050079 546.23803375 554.19618225 547.22029114 C553.98824411 550.1665693 553.48556997 553.08658017 553 556 C447.4 556 341.8 556 233 556 C232.67 564.25 232.34 572.5 232 581 C231.71061237 586.5000334 231.40976134 591.99605114 231.07617188 597.49316406 C230.98877303 598.96341251 230.90158689 600.43367361 230.81459045 601.90394592 C230.58332704 605.80210862 230.34910296 609.70008766 230.1141758 613.59803104 C229.86608339 617.7223798 229.62066931 621.84688811 229.37487793 625.97137451 C228.96300496 632.87636156 228.54927871 639.78123546 228.13427734 646.68603516 C227.65668445 654.63244374 227.18159829 662.57899903 226.70793295 670.52564263 C226.19920485 679.06021795 225.68876591 687.5946903 225.17777443 696.12913036 C225.03226907 698.56109245 224.88706568 700.9930724 224.7419281 703.42505646 C224.51315731 707.25687416 224.28322079 711.08862031 224.05242729 714.9203167 C223.96861404 716.31455434 223.88516246 717.70881379 223.80212593 719.10309792 C223.68752281 721.02625262 223.57138257 722.94931554 223.4552002 724.87237549 C223.35897747 726.47598372 223.35897747 726.47598372 223.26081085 728.11198807 C222.88298875 733.74433359 222.43295201 739.37162384 222 745 C149.4 745 76.8 745 2 745 C-20.88276907 663.76616979 -20.88276907 663.76616979 -29.80206299 631.92877197 C-31.73387084 625.03322314 -33.66614721 618.13780577 -35.59907532 611.24257088 C-36.25071816 608.91753036 -36.90193298 606.59237031 -37.55310059 604.26719666 C-37.7537336 603.553434 -37.95436661 602.83967134 -38.16107941 602.10427952 C-38.55364426 600.69958737 -38.94159465 599.29359711 -39.32482147 597.8863287 C-40.16770567 594.81445472 -41.06809683 591.81736885 -42.18139648 588.83157349 C-51.39444092 562.91723481 -43.52575633 528.05870816 -41.2947675 501.34274065 C-40.80493174 495.44949651 -40.32596977 489.55537071 -39.84664078 483.66126488 C-38.86745259 471.6251508 -37.87780757 459.58991886 -36.88194466 447.55517387 C-35.89703724 435.6524282 -34.91688894 423.74930602 -33.94293022 411.84565926 C-33.88207609 411.10193942 -33.82122195 410.35821959 -33.75852376 409.59196279 C-33.44940745 405.81385333 -33.14037335 402.03573715 -32.83137017 398.25761843 C-30.64875202 371.5730913 -28.45556 344.8894429 -26.25610352 318.20629883 C-24.12321368 292.33045543 -21.99540551 266.45420208 -19.87426758 240.57739258 C-19.80881218 239.77889287 -19.74335678 238.98039316 -19.67591789 238.1576965 C-19.08379386 230.93423822 -18.49173049 223.71077497 -17.8997373 216.48730597 C-13.76570196 166.04428039 -9.62543383 115.60176796 -5.47181261 65.16035116 C-5.15565149 61.32017032 -4.8396623 57.47997537 -4.5237236 53.63977623 C-4.03622482 47.71460991 -3.54825081 41.78948292 -3.0598821 35.86438823 C-2.88339659 33.72239165 -2.70706231 31.5803826 -2.53089548 29.43835979 C-2.29110899 26.52322868 -2.05073568 23.60814651 -1.81021214 20.69307613 C-1.74224795 19.86523482 -1.67428376 19.03739351 -1.60426006 18.18446609 C-1.10288773 12.11928695 -0.5510435 6.06147847 0 0 Z M872 372 C872 372.66 872 373.32 872 374 C941.63 374 1011.26 374 1083 374 C1083 373.34 1083 372.68 1083 372 C1013.37 372 943.74 372 872 372 Z " fill="#000000" transform="translate(45,0)"/>
<path d="M0 0 C47.85 0 95.7 0 145 0 C147.31238383 43.93529275 147.31238383 43.93529275 147.578125 55.3137207 C147.64162418 58.0213654 147.71863472 60.72860221 147.79492188 63.43591309 C148.0152607 72.63553378 148 81.78804634 148 91 C184.3 91 220.6 91 258 91 C258.33 98.26 258.66 105.52 259 113 C259.33 115.97 259.66 118.94 260 122 C260.12160735 123.76975258 260.22434772 125.54104409 260.29711914 127.31347656 C260.33708511 128.25185364 260.37705109 129.19023071 260.41822815 130.15704346 C260.45681442 131.14162537 260.4954007 132.12620728 260.53515625 133.140625 C260.57813339 134.18466492 260.62111053 135.22870483 260.66539001 136.30438232 C260.75510591 138.50282688 260.84326079 140.70133564 260.92993164 142.89990234 C261.06156727 146.22642935 261.19935855 149.55266011 261.33789062 152.87890625 C261.42484909 155.0286309 261.51144912 157.17837009 261.59765625 159.328125 C261.65857201 160.79285248 261.65857201 160.79285248 261.72071838 162.28717041 C262.00156259 169.54202417 262 176.72449152 262 184 C286.42 184 310.84 184 336 184 C335.34 175.09 334.68 166.18 334 157 C333.70269674 152.49321192 333.40973322 147.98904521 333.1484375 143.48046875 C333.05280014 141.85628777 333.05280014 141.85628777 332.95523071 140.19929504 C332.82483839 137.97138832 332.69553477 135.74341758 332.56738281 133.51538086 C332.37237736 130.14213299 332.17064971 126.76932585 331.96875 123.39648438 C331.84074127 121.19533599 331.71312255 118.99416488 331.5859375 116.79296875 C331.52659027 115.81249069 331.46724304 114.83201263 331.40609741 113.82182312 C330.97601223 106.17696402 331 98.69404853 331 91 C366.64 91 402.28 91 439 91 C436.75797657 52.02503336 436.75797657 52.02503336 434.13598633 13.07983398 C433.94365525 8.7238977 434 4.36018029 434 0 C481.52 0 529.04 0 578 0 C578.86482986 2.59448959 579.18847326 4.3854468 579.35717773 7.06225586 C579.41070908 7.87838852 579.46424042 8.69452118 579.51939392 9.53538513 C579.57357986 10.41960648 579.62776581 11.30382782 579.68359375 12.21484375 C579.77423851 13.60226524 579.77423851 13.60226524 579.86671448 15.01771545 C580.06075324 17.99074719 580.24968659 20.96406892 580.4375 23.9375 C581.20647626 36.08569959 582.05995079 48.19982674 583.32528687 60.30751038 C583.91571478 65.99337685 584.35030623 71.66129446 584.5625 77.375 C584.62298207 78.90378079 584.68670495 80.43243733 584.75390625 81.9609375 C584.77783447 82.59821777 584.8017627 83.23549805 584.82641602 83.89208984 C584.97464616 86.09887023 584.97464616 86.09887023 585.47265625 88.64233398 C586.15805136 93.00633348 586.41642291 97.35497651 586.68359375 101.76171875 C586.80791339 103.70638208 586.93226339 105.65104348 587.05664062 107.59570312 C587.24640108 110.62045077 587.4348835 113.64527315 587.62231445 116.67016602 C588.29478518 127.45730895 589.06830445 138.20016018 590.26623535 148.94235229 C591.19548791 157.44371823 591.73037938 165.96496322 592.26177979 174.4989624 C592.56688056 179.38407198 592.88658622 184.26821999 593.20703125 189.15234375 C593.27170593 190.13910095 593.33638062 191.12585815 593.40301514 192.14251709 C594.07030172 202.22579808 594.83043651 212.30103902 595.625 222.375 C595.68734833 223.175961 595.74969666 223.976922 595.81393433 224.80215454 C595.99047755 227.06363659 596.17033495 229.32482652 596.3515625 231.5859375 C596.45291504 232.8548584 596.55426758 234.1237793 596.65869141 235.43115234 C596.88027168 237.74807688 597.15699604 240.06062795 597.49780273 242.36303711 C598.1066049 246.77204333 598.40498882 251.16526585 598.68359375 255.60546875 C598.80791782 257.49674643 598.93226766 259.38802241 599.05664062 261.27929688 C599.24624728 264.21176654 599.43473707 267.14430415 599.62231445 270.0769043 C600.33589427 281.17377929 601.17078194 292.23456872 602.32528687 303.2948761 C602.91520291 308.98493454 603.3501537 314.65718753 603.5625 320.375 C603.62298207 321.90378079 603.68670495 323.43243733 603.75390625 324.9609375 C603.77783447 325.59821777 603.8017627 326.23549805 603.82641602 326.89208984 C603.97464616 329.09887023 603.97464616 329.09887023 604.47265625 331.64233398 C605.15805136 336.00633348 605.41642291 340.35497651 605.68359375 344.76171875 C605.80791339 346.70638208 605.93226339 348.65104348 606.05664062 350.59570312 C606.24640108 353.62045077 606.4348835 356.64527315 606.62231445 359.67016602 C607.31024298 370.70526844 608.1071707 381.69708606 609.32528687 392.68736267 C609.93370914 398.20493661 610.3575552 403.70149456 610.5625 409.25 C610.62318522 410.77616879 610.68693448 412.30221915 610.75390625 413.828125 C610.77783447 414.4665332 610.8017627 415.10494141 610.82641602 415.76269531 C610.96658751 417.56935011 611.2046294 419.36824771 611.47265625 421.16040039 C612.08778253 425.63914619 612.40062137 430.09566056 612.68359375 434.60546875 C612.80791782 436.49674643 612.93226766 438.38802241 613.05664062 440.27929688 C613.24624728 443.21176654 613.43473707 446.14430415 613.62231445 449.0769043 C613.80647567 451.94079413 613.99386904 454.80444222 614.18359375 457.66796875 C614.27753922 459.0904744 614.27753922 459.0904744 614.37338257 460.54171753 C614.85821799 467.59597116 615.51160034 474.62382386 616.36827087 481.64311218 C617.25386249 489.53859339 617 496.8654779 617 505 C567.5 505 518 505 467 505 C463.56392937 454.78651333 463.56392937 454.78651333 462.35546875 436.93359375 C462.27023642 435.6744409 462.18500408 434.41528805 462.09718895 433.11797905 C459.4268851 393.65113664 456.80398714 354.18110736 454.18278611 314.71097893 C453.69932543 307.4319989 453.21500784 300.1530762 452.73034668 292.87417603 C452.13196576 283.88682765 451.53483976 274.89939692 450.93928927 265.91186053 C450.63003668 261.24516316 450.32026997 256.57850142 450.00914955 251.91192818 C449.72096489 247.58888412 449.43433524 243.26573983 449.14893675 238.94251096 C449.0446173 237.36633145 448.93973645 235.79018897 448.83424997 234.21408713 C448.69079476 232.06936669 448.54937192 229.92452155 448.40846252 227.77963257 C448.32906213 226.58326361 448.24966173 225.38689465 448.16785526 224.15427208 C448.02338526 221.43944685 448 218.71866651 448 216 C423.91 216 399.82 216 375 216 C376.27050852 239.07853827 376.27050852 239.07853827 377.54272461 262.15698242 C377.79211426 266.69592285 377.79211426 266.69592285 377.90992737 268.84370422 C377.9896016 270.29363022 378.06956736 271.74354022 378.14979553 273.19343567 C378.82820172 285.4600333 379.41561598 297.72793567 380 310 C331.16 310 282.32 310 232 310 C229.79600155 278.4093555 228 247.56772144 228 216 C203.58 216 179.16 216 154 216 C154.99 233.82 154.99 233.82 156 252 C156.2246274 258.5234577 156.4386111 265.0379413 156.5625 271.5625 C156.60735072 273.77538056 156.65415882 275.98816807 156.70530701 278.20091248 C156.74984887 280.13979105 156.78843116 282.07880415 156.82641602 284.01782227 C157.00408728 288.09376598 157.36892035 292.12352801 157.75474548 296.18373108 C158.13530953 300.55376559 158.32343518 304.92628152 158.5 309.30859375 C158.54028824 310.26168427 158.58057648 311.21477478 158.62208557 312.19674683 C158.75108345 315.27688105 158.87573995 318.35717129 159 321.4375 C159.04357635 322.49214447 159.08715271 323.54678894 159.13204956 324.63339233 C159.77935968 340.30825365 160.31692695 355.98309151 160.65820312 371.66772461 C160.6744725 372.35762482 160.69074188 373.04752502 160.70750427 373.7583313 C160.75007738 375.57490509 160.7884541 377.39157595 160.82641602 379.20825195 C160.96625051 382.2627801 161.19516281 385.26757318 161.48413086 388.30957031 C161.98865811 393.64043343 162.28446767 398.9591137 162.5 404.30859375 C162.54028824 405.26168427 162.58057648 406.21477478 162.62208557 407.19674683 C162.75108345 410.27688105 162.87573995 413.35717129 163 416.4375 C163.04357635 417.49214447 163.08715271 418.54678894 163.13204956 419.63339233 C163.77935968 435.30825365 164.31692695 450.98309151 164.65820312 466.66772461 C164.78676807 472.27253621 164.93219722 477.83990822 165.52734375 483.41796875 C166.16258495 490.92011479 166 498.4710076 166 506 C116.5 506 67 506 16 506 C15.26940564 502.34702818 14.84629041 499.39599373 14.73918915 495.74424267 C14.69010178 494.17658257 14.69010178 494.17658257 14.64002275 492.57725257 C14.60859918 491.4354462 14.57717561 490.29363984 14.5447998 489.11723328 C14.50789897 487.8991845 14.47099814 486.68113572 14.43297911 485.42617637 C14.33148193 482.04796651 14.23379789 478.66968511 14.13770652 475.29131973 C14.03309124 471.64612228 13.92355246 468.00107245 13.81459045 464.35600281 C13.62637722 458.03795169 13.44121875 451.71981698 13.2580719 445.40161705 C12.99271577 436.24912798 12.7221585 427.09679828 12.45023984 417.94450209 C12.00847518 403.07238601 11.57012142 388.20017156 11.13427734 373.32788086 C11.10818962 372.4377209 11.0821019 371.54756095 11.05522364 370.63042644 C10.94955267 367.02462444 10.84388444 363.41882236 10.73822132 359.81302012 C10.44800474 349.91072902 10.15701736 340.00846062 9.86572266 330.10620117 C9.83966782 329.22046257 9.81361299 328.33472396 9.78676862 327.42214479 C9.35123286 312.61869297 8.91358487 297.81530412 8.47471476 283.01195079 C8.20445504 273.89178668 7.93623454 264.7715668 7.67070401 255.65126375 C7.48831164 249.38996516 7.30408533 243.12872226 7.11846006 236.86751869 C7.01165809 233.26259032 6.90570859 229.65764236 6.80212593 226.05261993 C6.27937852 207.13066085 6.27937852 207.13066085 5.21063805 188.23412991 C4.88319094 183.20651731 4.75895925 178.17472831 4.65838623 173.13771057 C4.59689216 170.15401816 4.5326759 167.1704262 4.46466064 164.18687439 C4.3886297 160.83657821 4.31414065 157.48625323 4.24090576 154.13589478 C4.04028192 144.9875034 3.82631575 135.8394236 3.609375 126.69140625 C3.5750065 125.23986554 3.5750065 125.23986554 3.5399437 123.75900078 C2.55741348 82.50091823 1.23808645 41.25078959 0 0 Z " fill="#E1E1E1" transform="translate(1385,51)"/>
<path d="M0 0 C154.77 0 309.54 0 469 0 C469 35.63053097 469 35.63053097 468.0625 50.5625 C467.26683685 64.03895301 466.61310163 77.5117641 466 91 C501.97 91 537.94 91 575 91 C575 122.30866636 575 122.30866636 574.62768555 133.68432617 C574.56106875 135.73148292 574.50185662 137.77876839 574.44335938 139.82617188 C574.24178632 146.5429768 573.94033945 153.23918048 573.49609375 159.9453125 C572.89619319 169.08247448 572.66667903 178.21891474 572.44775391 187.37182617 C572.39500992 189.53311969 572.33822378 191.69428318 572.28125 193.85546875 C572.23581055 195.73721802 572.23581055 195.73721802 572.18945312 197.65698242 C571.93691917 203.44606311 571.44442447 209.22248189 571 215 C534.7 215 498.4 215 461 215 C460.67 230.51 460.34 246.02 460 262 C459.49532136 278.14971658 458.40295002 293.86607481 457 310 C347.11 310 237.22 310 124 310 C120.09466322 369.6849826 120.09466322 369.6849826 116.19165039 429.37011719 C115.43444824 440.93212891 115.43444824 440.93212891 115.07933044 446.35040283 C114.83218817 450.12234169 114.5856418 453.89431899 114.33946228 457.6663208 C114.02475183 462.48805988 113.70900624 467.30973016 113.39253318 472.13135386 C113.27698325 473.89444922 113.16178711 475.65756782 113.0469991 477.42071295 C112.89093406 479.81706101 112.73352987 482.21331775 112.57582092 484.60955811 C112.53205543 485.2864481 112.48828993 485.96333809 112.4431982 486.6607399 C112.03783489 492.78265499 111.5097913 498.88250437 111 505 C61.5 505 12 505 -39 505 C-39 494.41623227 -38.73937895 484.43916727 -37.625 474 C-37.34169427 471.22074818 -37.06718331 468.4407007 -36.796875 465.66015625 C-36.72826263 464.9545607 -36.65965027 464.24896515 -36.58895874 463.52198792 C-35.70107749 454.1545156 -35.17172961 444.76277574 -34.64697266 435.36914062 C-34.57526855 434.11166016 -34.50356445 432.85417969 -34.4296875 431.55859375 C-34.37022949 430.45829834 -34.31077148 429.35800293 -34.24951172 428.22436523 C-33.9834414 424.78601815 -33.4974051 421.41173665 -33 418 C-32.89224297 416.6111316 -32.80608233 415.2201899 -32.75390625 413.828125 C-32.72103516 413.07917969 -32.68816406 412.33023437 -32.65429688 411.55859375 C-32.59496602 410.06648594 -32.53754173 408.57430055 -32.48242188 407.08203125 C-32.23129704 401.4625209 -31.68184992 395.90440114 -31.0625 390.31640625 C-29.8344276 379.12920103 -29.13338923 367.91825125 -28.4375 356.6875 C-28.24930264 353.66692028 -28.05988573 350.64644085 -27.86671448 347.62617493 C-27.74797298 345.76876748 -27.63202741 343.91117835 -27.51939392 342.0533905 C-27.23765214 337.63682114 -26.78441013 333.36167853 -26 329 C-25.84681057 326.37308488 -25.72465146 323.75377674 -25.625 321.125 C-25.23001405 312.32358693 -24.42575194 303.57869611 -23.5625 294.8125 C-22.48893054 283.88111109 -21.63073466 272.96642719 -21 262 C-20.39228344 251.4565032 -19.58918136 240.95016646 -18.5625 230.4375 C-17.36762725 218.19653991 -16.32022999 205.95034686 -15.375 193.6875 C-15.28147751 192.49071121 -15.28147751 192.49071121 -15.18606567 191.26974487 C-14.44019605 181.6969879 -13.80281175 172.1273507 -13.36239624 162.53520203 C-13.12395827 157.55733979 -12.68513174 152.63998266 -12.125 147.6875 C-11.05760068 138.07716745 -10.2609917 128.45113501 -9.5 118.8125 C-9.43492249 117.9891214 -9.36984497 117.1657428 -9.30279541 116.31741333 C-8.31861076 103.78439407 -7.50614175 91.24817563 -6.76953125 78.69848633 C-6.12510353 68.12551387 -5.15399086 57.60088768 -4.10986328 47.06225586 C-3.0096565 35.72732292 -2.26611559 24.3843772 -1.64648438 13.01367188 C-1.57494141 11.74458984 -1.50339844 10.47550781 -1.4296875 9.16796875 C-1.37022949 8.04672607 -1.31077148 6.9254834 -1.24951172 5.77026367 C-1 3 -1 3 0 0 Z " fill="#E1E1E1" transform="translate(85,51)"/>
<path d="M0 0 C155.1 0 310.2 0 470 0 C471.12648445 14.64429783 471.12648445 14.64429783 471.28125 21.0234375 C471.30832031 22.10251877 471.30832031 22.10251877 471.3359375 23.20339966 C471.39444515 25.59385958 471.44744126 27.98440237 471.5 30.375 C471.54099787 32.12695354 471.58201417 33.87890665 471.62304688 35.63085938 C472.01665144 52.93694678 472.26791964 70.24558941 472.53125 87.55403137 C472.79800545 105.07900483 473.08009526 122.60290231 473.5 140.125 C473.51796631 140.9080249 473.53593262 141.6910498 473.55444336 142.49780273 C473.57192627 143.2506958 473.58940918 144.00358887 473.60742188 144.77929688 C473.62220581 145.42233765 473.63698975 146.06537842 473.65222168 146.72790527 C473.81113771 152.62179462 474.01498341 158.50786483 474.33077335 164.39556789 C475.17636156 180.45496038 475.51293664 196.53248316 475.90911031 212.60774493 C475.97352124 215.2186562 476.03848967 217.82955307 476.10360527 220.44044685 C476.30983066 228.71645593 476.51408662 236.99251012 476.71548563 245.26863807 C476.92060564 253.69704824 477.12974334 262.12533328 477.34594727 270.5534668 C479.03999458 336.67278322 479.03999458 336.67278322 479.12060547 364.17236328 C479.12262978 364.86239244 479.12465409 365.5524216 479.12673974 366.26336074 C479.15918597 379.84251427 479.06410105 393.42091641 479 407 C442.37 407 405.74 407 368 407 C368.3265675 428.35672874 368.3265675 428.35672874 368.65820312 449.71337891 C368.72167969 453.95776367 368.72167969 453.95776367 368.75134277 455.9793396 C368.77135149 457.31553384 368.79219063 458.6517159 368.81384277 459.98788452 C369.06096913 475.32740348 369 490.65470263 369 506 C244.92 506 120.84 506 -7 506 C-7 472.99831654 -6.91635996 439.98895869 -6 407 C-42.63 407 -79.26 407 -117 407 C-117 359.81688904 -117 359.81688904 -116.5625 342.96484375 C-116.52234555 341.27902249 -116.48263807 339.59319053 -116.44335938 337.90734863 C-116.30087873 331.91727053 -116.15002807 325.92739382 -116 319.9375 C-115.67 306.428125 -115.34 292.91875 -115 279 C-66.16 279 -17.32 279 33 279 C33 311.00173606 32.52454814 343.00256322 32 375 C130.34 375 228.68 375 330 375 C329.36966658 333.79407687 329.36966658 333.79407687 328.47265625 292.59375 C327.80343124 266.66291796 327.66559679 240.72550941 327.48259032 214.78763008 C327.43779348 208.46603447 327.38878311 202.14447481 327.33933926 195.82291412 C327.28596777 188.99653706 327.23477675 182.17014375 327.18359375 175.34375 C327.17403593 174.08836929 327.16447811 172.83298859 327.15463066 171.53956604 C327.12737775 167.91375373 327.10146004 164.28793417 327.07592773 160.66210938 C327.06814804 159.6475618 327.06036835 158.63301422 327.05235291 157.58772278 C326.97184401 145.72470278 327 133.86421611 327 122 C218.76 122 110.52 122 -1 122 C-1 81.33196724 -0.52134219 40.66469096 0 0 Z " fill="#E1E1E1" transform="translate(843,51)"/>
<path d="M0 0 C124.08 0 248.16 0 376 0 C375 37 375 37 374 47 C373.879119 49.32166291 373.78281127 51.64482508 373.71875 53.96875 C373.68136719 55.19980469 373.64398437 56.43085937 373.60546875 57.69921875 C373.55326172 59.58060547 373.55326172 59.58060547 373.5 61.5 C373.29600916 68.85122547 373.04201398 76.12828721 372.23193359 83.43847656 C371.64171894 89.95693146 371.6344421 96.52973503 371.48242188 103.0703125 C371.13480479 115.13852821 370.00891568 126.89301187 369 139 C249.54 139 130.08 139 7 139 C4.71550708 111.58608491 4.71550708 111.58608491 4.4375 99.625 C4.23392881 90.32386196 4.23392881 90.32386196 3.50390625 81.0546875 C2.64685279 73.30099505 2.61075593 65.49131564 2.39453125 57.69921875 C2.35714844 56.46816406 2.31976562 55.23710938 2.28125 53.96875 C2.25095703 52.86982422 2.22066406 51.77089844 2.18945312 50.63867188 C1.95216982 46.08136469 1.45408326 41.54083258 1 37 C0.67 24.79 0.34 12.58 0 0 Z " fill="#494949" transform="translate(836,557)"/>
<path d="M0 0 C0.33 0 0.66 0 1 0 C1.03867187 1.63582031 1.03867187 1.63582031 1.078125 3.3046875 C1.46053027 14.61603293 3.26126066 25.04237329 6 36 C6.50529664 38.12374676 7.00575364 40.24865442 7.5 42.375 C7.73847656 43.3959375 7.97695312 44.416875 8.22265625 45.46875 C9.20328144 49.92344938 10.06613367 54.39787874 10.9375 58.875 C12.35564718 66.14444827 14.08151054 73.22301845 16.06640625 80.359375 C17.22603265 84.88143277 18.04678815 89.42568204 18.85571289 94.02050781 C19.68030288 98.58763838 20.75859215 103.02340806 22 107.5 C23.6101456 113.30628261 24.8138711 119.07144388 25.84887695 124.99755859 C26.92939439 131.01516423 28.51698436 136.82967681 30.23046875 142.6953125 C31 146 31 146 31 152 C-16.85 152 -64.7 152 -114 152 C-132 84.5 -132 84.5 -133.0078125 80.71484375 C-133.64451233 78.33097942 -134.28482168 75.94807455 -134.9296875 73.56640625 C-136.51551853 67.68834662 -138.0554423 61.80501025 -139.515625 55.89453125 C-139.78133301 54.82001709 -140.04704102 53.74550293 -140.32080078 52.63842773 C-140.84854959 50.49683139 -141.37307264 48.35443702 -141.89404297 46.21118164 C-142.13783691 45.22110107 -142.38163086 44.23102051 -142.6328125 43.2109375 C-142.84824707 42.32712402 -143.06368164 41.44331055 -143.28564453 40.53271484 C-144.01963245 37.93039404 -144.97563035 35.50017843 -146 33 C-146.53211763 31.07107359 -147.03090522 29.1327137 -147.5 27.1875 C-148.35993077 23.6342835 -149.24098293 20.09347858 -150.1875 16.5625 C-150.87796107 13.53509375 -151.19244549 11.07912787 -151 8 C-150.67 9.32 -150.34 10.64 -150 12 C-100.5 12 -51 12 0 12 C0 8.04 0 4.08 0 0 Z " fill="#4A4A4A" transform="translate(196,544)"/>
<path d="M0 0 C0.33 0 0.66 0 1 0 C1 3.96 1 7.92 1 12 C50.5 12 100 12 151 12 C151.33 10.68 151.66 9.36 152 8 C151.40630315 13.22453224 150.26400727 18.19194238 148.953125 23.28125 C148.21713145 26.15283138 147.50023876 29.02664789 146.796875 31.90625 C146.58321289 32.77612549 146.36955078 33.64600098 146.14941406 34.54223633 C145.72700955 36.26282014 145.30695969 37.98398432 144.88964844 39.70581055 C143.69155707 44.55442669 142.28784917 49.26800252 140.66943359 53.99243164 C139.83036779 56.50871103 139.1751826 59.04488321 138.5625 61.625 C136.82115389 68.78084417 134.90963517 75.88750976 133 83 C132.33284863 85.4998707 131.66617885 87.99986997 131 90.5 C128.33333333 100.5 125.66666667 110.5 123 120.5 C122.67257812 121.72976563 122.34515625 122.95953125 122.0078125 124.2265625 C121.31894637 126.80580547 120.62675924 129.38392275 119.9296875 131.9609375 C119.75308594 132.61642578 119.57648438 133.27191406 119.39453125 133.94726562 C118.90754127 135.75425475 118.41868123 137.56073959 117.9296875 139.3671875 C116.85798747 143.55492292 115.93772363 147.78024369 115 152 C67.15 152 19.3 152 -30 152 C-28.87943925 140.79439252 -28.87943925 140.79439252 -27.6875 136 C-26.40083908 130.67761726 -25.17716118 125.34737094 -24 120 C-22.62741084 113.79395923 -21.21960399 107.59742587 -19.78125 101.40625 C-18.83377662 97.27526606 -17.91598024 93.13806022 -17 89 C-14.6092516 78.22188793 -14.6092516 78.22188793 -13.4375 73.0625 C-13.22996094 72.14597656 -13.02242187 71.22945312 -12.80859375 70.28515625 C-12.11722077 67.47624477 -11.35523803 64.70543257 -10.5703125 61.921875 C-8.86988993 55.73485211 -7.63701601 49.48779701 -6.4375 43.1875 C-5.25290979 36.971152 -4.03998869 30.99739166 -2 25 C-1.02010974 19.5424655 -0.70921195 14.09027911 -0.4375 8.5625 C-0.39431641 7.73556641 -0.35113281 6.90863281 -0.30664062 6.05664062 C-0.20161967 4.03790451 -0.10041441 2.01897049 0 0 Z " fill="#4A4A4A" transform="translate(1851,544)"/>
<path d="M0 0 C0.33 0 0.66 0 1 0 C1 1.65 1 3.3 1 5 C50.5 5 100 5 151 5 C149.87471069 14.00231451 149.87471069 14.00231451 149.27563477 18.19995117 C149.14202042 19.13840378 149.00840607 20.07685638 148.8707428 21.04374695 C148.72906174 22.03349014 148.58738068 23.02323334 148.44140625 24.04296875 C148.29219223 25.08842361 148.14297821 26.13387848 147.98924255 27.21101379 C147.67440622 29.415546 147.35921926 31.62002816 147.04370117 33.82446289 C146.56650352 37.15952004 146.09078988 40.49478647 145.61523438 43.83007812 C145.30738136 45.98438782 144.99944141 48.13868509 144.69140625 50.29296875 C144.55174942 51.27259079 144.41209259 52.25221283 144.26820374 53.26152039 C143.54356243 58.3173082 142.79347 63.36803057 142.01147461 68.4152832 C140.9993205 74.95749444 140.05438945 81.50808258 139.125 88.0625 C138.95500488 89.25625244 138.78500977 90.45000488 138.60986328 91.67993164 C138.07255325 95.45319012 137.53615698 99.22657752 137 103 C136.29250458 107.97928634 135.584039 112.95843326 134.875 117.9375 C134.63740967 119.61307983 134.63740967 119.61307983 134.39501953 121.32250977 C133.31704881 128.89149304 132.16270285 136.44243146 131 144 C83.15 144 35.3 144 -14 144 C-13.41872739 134.69963823 -12.79810944 125.97595957 -11.50390625 116.83984375 C-10.59534423 109.91646033 -10.06938485 102.95810251 -9.5 96 C-8.83055337 87.81910394 -8.1358924 79.67187284 -7.00390625 71.5390625 C-5.84064305 63.1737502 -5.13120832 54.7893062 -4.4375 46.375 C-4.24915883 44.10185026 -4.05968481 41.82882249 -3.86671448 39.55606079 C-3.69401072 37.52117561 -3.52546077 35.48593913 -3.35717773 33.45068359 C-3.05817838 30.56205958 -2.57814061 27.83921691 -2 25 C-1.79417179 23.01697968 -1.61775154 21.03077006 -1.46484375 19.04296875 C-1.37783203 17.93115234 -1.29082031 16.81933594 -1.20117188 15.67382812 C-1.11416016 14.52333984 -1.02714844 13.37285156 -0.9375 12.1875 C-0.84662109 11.01767578 -0.75574219 9.84785156 -0.66210938 8.64257812 C-0.43871106 5.76191563 -0.21810394 2.88106738 0 0 Z " fill="#494949" transform="translate(1400,552)"/>
<path d="M0 0 C96.36 0 192.72 0 292 0 C291 47 291 47 290 62 C192.98 62 95.96 62 -4 62 C-3.10043104 41.30991386 -1.58835633 20.64863223 0 0 Z " fill="#010101" transform="translate(221,173)"/>
</svg>
